# xmcd
#
# Track frame offsets:
#	175
#	14900
#	27800
#	40262
#	49575
#	63050
#	74350
#	87062
#	101987
#	116250
#	126525
#	140475
#	150125
#	158537
#	168825
#	179912
#	193200
#	202200
#	217725
#	231237
#	245325
#	256425
#	274425
#	285012
#	298275
#	314637
#
# Disc length: 4331 seconds
#
# Revision: 1
# Processed by: cddbd v1.4b41PL1 Copyright (c) Steve Scherf et al.
# Submitted via: audiograbber 1.80
#
DISCID=8510e91a
DTITLE=Иосиф Кобзон - Черные Глаза
DYEAR=1900
DGENRE=
TTITLE0=В парке Чаир
TTITLE1=Дымок от папиросы
TTITLE2=Забвение
TTITLE3=Забытое танго
TTITLE4=Зачем
TTITLE5=Мне бесконечно жаль
TTITLE6=Утомленное солнце
TTITLE7=Черные глаза
TTITLE8=Скажите, почему
TTITLE9=Тайна
TTITLE10=Портрет
TTITLE11=Сядь со мною рядом
TTITLE12=Маша
TTITLE13=Дядя Ваня
TTITLE14=Если любишь - найди
TTITLE15=Андрюша
TTITLE16=Дружба
TTITLE17=Мама
TTITLE18=Дни проходят
TTITLE19=Осень
TTITLE20=Мой костер
TTITLE21=Уходит вечер
TTITLE22=Любушка
TTITLE23=Здравствуй, здравствуй!
TTITLE24=Лунная рапсодия
TTITLE25=Снова пою
EXTD=
EXTT0=
EXTT1=
EXTT2=
EXTT3=
EXTT4=
EXTT5=
EXTT6=
EXTT7=
EXTT8=
EXTT9=
EXTT10=
EXTT11=
EXTT12=
EXTT13=
EXTT14=
EXTT15=
EXTT16=
EXTT17=
EXTT18=
EXTT19=
EXTT20=
EXTT21=
EXTT22=
EXTT23=
EXTT24=
EXTT25=
PLAYORDER=
